<?xml version="1.0" encoding="utf-8"?>
<!-- Generator: Adobe Illustrator 17.0.0, SVG Export Plug-In . SVG Version: 6.00 Build 0)  -->
<!DOCTYPE svg PUBLIC "-//W3C//DTD SVG 1.1//EN" "http://www.w3.org/Graphics/SVG/1.1/DTD/svg11.dtd">
<svg version="1.1" xmlns="http://www.w3.org/2000/svg" xmlns:xlink="http://www.w3.org/1999/xlink" x="0px" y="0px"
	 width="566.93px" height="566.93px" viewBox="0 0 566.93 566.93" enable-background="new 0 0 566.93 566.93" xml:space="preserve">
<g id="图层_1" display="none">
	<path display="inline" d="M443.5,419.165c0,39.283-35.132,71.129-78.468,71.129H196.64c-43.337,0-78.468-31.845-78.468-71.129
		V141.986c0-39.283,35.131-71.129,78.468-71.129h168.392c43.337,0,78.468,31.845,78.468,71.129V419.165z"/>
	<path display="inline" fill="#FFFFFF" d="M427.096,408.978c0,36.432-31.352,65.966-70.027,65.966H206.792
		c-38.675,0-70.027-29.534-70.027-65.966V151.917c0-36.432,31.352-65.966,70.027-65.966h150.277
		c38.675,0,70.027,29.534,70.027,65.966V408.978z"/>
	<path display="inline" d="M381.859,355.852c0,4.394-5.353,7.956-11.957,7.956H195.677c-6.603,0-11.957-3.562-11.957-7.956l0,0
		c0-4.394,5.353-7.956,11.957-7.956h174.225C376.506,347.896,381.859,351.458,381.859,355.852L381.859,355.852z"/>
	<path display="inline" d="M381.398,316.401c0,4.394-5.353,7.956-11.957,7.956H195.216c-6.603,0-11.957-3.562-11.957-7.956l0,0
		c0-4.394,5.353-7.956,11.957-7.956h174.225C376.045,308.445,381.398,312.007,381.398,316.401L381.398,316.401z"/>
	<path display="inline" d="M381.398,273.106c0,4.394-5.353,7.956-11.957,7.956H195.216c-6.603,0-11.957-3.562-11.957-7.956l0,0
		c0-4.394,5.353-7.956,11.957-7.956h174.225C376.045,265.15,381.398,268.712,381.398,273.106L381.398,273.106z"/>
	<path display="inline" d="M381.398,230.732c0,4.394-5.353,7.956-11.957,7.956H195.216c-6.603,0-11.957-3.562-11.957-7.956l0,0
		c0-4.394,5.353-7.956,11.957-7.956h174.225C376.045,222.776,381.398,226.338,381.398,230.732L381.398,230.732z"/>
	<path display="inline" d="M381.398,192.742c0,4.394-5.353,7.956-11.957,7.956H195.216c-6.603,0-11.957-3.562-11.957-7.956l0,0
		c0-4.394,5.353-7.956,11.957-7.956h174.225C376.045,184.786,381.398,188.348,381.398,192.742L381.398,192.742z"/>
	<path display="inline" stroke="#000000" stroke-miterlimit="10" d="M346.859,393.161c0,4.394-3.562,7.956-7.956,7.956H222.972
		c-4.394,0-7.956-3.562-7.956-7.956l0,0c0-4.394,3.562-7.956,7.956-7.956h115.931C343.297,385.205,346.859,388.767,346.859,393.161
		L346.859,393.161z"/>
	<path display="inline" d="M128.667,128.797c5.105-21.66,27.565-41.514,50.026-43.319c22.46-1.805,49.177-15.236,41.765-2.504
		c-4.526,7.775-29.494,35.796-16.781,60.88c0.791,1.122,1.129,3.603-2.383,2.142c-33.327-13.868-66.26,0.465-73.648,5.364"/>
</g>
<g id="图层_1_x5F_复制">
	<path d="M365.032,70.857H196.64c-43.337,0-78.468,31.845-78.468,71.129v65.503H443.5v-65.503
		C443.5,102.702,408.369,70.857,365.032,70.857z M357.458,166.785c0,4.113-2.956,7.53-6.858,8.257v0.227H214.869v-0.108
		c-4.372-0.298-7.828-3.929-7.828-8.376v-33.622c0-4.642,3.763-8.406,8.406-8.406s8.406,3.763,8.406,8.406v25.295h116.795v-25.295
		c0-4.642,3.763-8.406,8.406-8.406s8.406,3.763,8.406,8.406V166.785z"/>
	<path d="M118.172,223.639v117.394H443.5V223.639H118.172z M357.458,298.523c0,4.113-2.956,7.53-6.858,8.257v0.227H214.869v-0.108
		c-4.372-0.298-7.828-3.929-7.828-8.376v-33.622c0-4.642,3.763-8.406,8.406-8.406s8.406,3.763,8.406,8.406v25.295h116.795v-25.295
		c0-4.642,3.763-8.406,8.406-8.406s8.406,3.763,8.406,8.406V298.523z"/>
	<path d="M118.172,357.066v62.1c0,39.283,35.131,71.129,78.468,71.129h168.392c43.337,0,78.468-31.845,78.468-71.129v-62.1H118.172z
		 M357.458,426.567c0,4.113-2.956,7.53-6.858,8.257v0.227H214.869v-0.108c-4.372-0.298-7.828-3.929-7.828-8.376v-33.622
		c0-4.642,3.763-8.406,8.406-8.406s8.406,3.763,8.406,8.406v25.295h116.795v-25.295c0-4.642,3.763-8.406,8.406-8.406
		s8.406,3.763,8.406,8.406V426.567z"/>
</g>
</svg>
