<?xml version="1.0" encoding="utf-8"?>
<!-- Generator: Adobe Illustrator 17.0.0, SVG Export Plug-In . SVG Version: 6.00 Build 0)  -->
<!DOCTYPE svg PUBLIC "-//W3C//DTD SVG 1.1//EN" "http://www.w3.org/Graphics/SVG/1.1/DTD/svg11.dtd">
<svg version="1.1" id="B_xA0_图像_1_" xmlns="http://www.w3.org/2000/svg" xmlns:xlink="http://www.w3.org/1999/xlink" x="0px"
	 y="0px" width="324.539px" height="321.789px" viewBox="0 0 324.539 321.789" enable-background="new 0 0 324.539 321.789"
	 xml:space="preserve">
<g>
	<path fill="#43535B" d="M283.58,199.263c-0.532,1.51-0.417,3.111-0.625,4.665c-1.271,9.503-4.784,18.176-9.791,26.263
		c-7.374,11.911-17.706,20.572-30.091,26.888c-10.869,5.543-22.447,8.864-34.446,10.846c-8.733,1.443-17.528,2.073-26.371,2.092
		c-1.915,0.004-3.83-0.149-5.746-0.179c-0.568-0.009-0.807-0.162-0.742-0.743c0.035-0.316,0.006-0.639,0.006-0.959
		c0-33.437,0-66.874,0-100.311c0-1.804-0.001-1.807-1.763-1.31c-0.692,0.195-1.373,0.426-2.067,0.612
		c-0.873,0.234-1.645,0.01-2.046-0.811c-0.41-0.84-0.192-1.659,0.539-2.266c1.184-0.985,2.626-1.386,4.106-1.449
		c1.098-0.047,1.252-0.49,1.251-1.455c-0.024-27.678-0.01-55.355-0.051-83.033c-0.002-1.278,0.354-1.527,1.563-1.523
		c10.398,0.036,20.797,0.016,31.195-0.019c9.036-0.031,18.072-0.121,27.108-0.143c2.397-0.006,4.795,0.171,7.133,0.756
		c6.541,1.637,11.189,6.623,11.96,13.425c0.829,7.317,0.793,14.691,0.078,22.02c-0.566,5.798-3.58,10.508-7.434,14.706
		c-1.431,1.558-2.944,3.049-4.503,4.48c-0.757,0.694-0.529,0.874,0.246,1.208c6.525,2.817,12.582,6.408,18.04,10.986
		c10.772,9.035,17.353,20.583,20.531,34.175c0.902,3.857,1.479,7.764,1.682,11.722c0.01,0.193-0.023,0.407,0.237,0.475
		C283.58,193.343,283.58,196.303,283.58,199.263z M199.822,244.558c8.595-1.113,16.887-3.03,24.852-6.217
		c9.406-3.764,17.788-9.041,24.354-16.897c4.596-5.498,8.07-11.65,9.628-18.663c1.223-5.507,0.89-11.131-0.045-16.687
		c-1.79-10.635-6.759-19.346-15.639-25.672c-6.942-4.945-14.785-7.777-22.956-9.859c-0.651-0.166-1.051,0.149-1.5,0.492
		c-5.905,4.512-11.697,9.172-17.732,13.512c-0.74,0.532-0.983,1.07-0.982,1.96c0.024,25.556,0.02,51.112,0.02,76.668
		C199.822,243.63,199.822,244.065,199.822,244.558z M199.822,134.968c0.47-0.339,0.76-0.538,1.038-0.75
		c6.565-5.011,13.145-10.003,19.687-15.044c3.163-2.437,6.289-4.928,8.913-7.974c1.078-1.251,1.744-2.605,1.62-4.347
		c-0.122-1.71-0.075-3.437-0.007-5.152c0.036-0.907-0.18-1.219-1.161-1.206c-5.513,0.074-11.027,0.068-16.54,0.096
		c-4.155,0.021-8.31,0.084-12.465,0.053c-0.923-0.007-1.12,0.258-1.107,1.137c0.053,3.436,0.021,6.873,0.021,10.31
		C199.822,119.64,199.822,127.19,199.822,134.968z"/>
	<path fill="#E7922D" d="M93.954,126.486c1.344-5.337,4.248-9.93,6.824-14.708c3.999-7.416,9.02-14.008,14.752-20.145
		c1.948-2.086,4.063-3.933,6.185-5.805c2.165-1.91,4.707-3.161,7.333-4.234c2.392-0.977,5.35,0.358,6.95,2.894
		c1.45,2.297,2.018,4.844,2.29,7.491c0.429,4.172,0.422,8.303-1.132,12.294c-0.037,0.094,0.015,0.222,0.034,0.42
		c0.85-0.281,1.498-0.808,2.153-1.292c1.554-1.149,3.236-2.051,5.018-2.786c3.379-1.394,5.773-0.135,6.426,3.462
		c1.072,5.897,1.135,11.751-0.771,17.531c-1.02,3.093-3.189,5.219-5.73,7.023c-4.837,3.435-10.359,5.09-16.139,6.025
		c-0.71,0.115-1.425,0.193-2.137,0.293c-0.442,0.062-0.905,0.105-0.919,0.718c-0.776-0.372-1.295-1.051-1.905-1.616
		c-1.01-0.936-2.182-1.599-3.416-2.17c-0.757-0.35-1.174-0.159-1.059,0.739c0.513,3.99,0.282,7.939-0.393,11.903
		c-0.998,5.865-3.034,11.303-6.338,16.243c-0.787,1.176-1.671,2.361-3.175,2.772c-1.54-1.71-2.838-3.591-3.952-5.604
		c-0.304-0.55-0.674-1.064-1.013-1.595c0.506-0.616,0.96-1.285,1.527-1.838c2.151-2.098,2.882-4.756,3.294-7.625
		c0.331-2.301,0.494-4.61,0.587-6.918c0.146-3.599-0.103-7.185-1.127-10.668c-0.257-0.874-0.595-1.86-1.509-2.202
		c-2.475-0.923-5.054-1.23-7.706-1.117c-1.087,0.046-1.397,0.364-1.221,1.43c0.478,2.902,0.506,5.827-0.221,8.684
		c-1.054,4.142-2.439,8.187-4.192,12.085c-0.401,0.892-0.798,1.905-1.687,2.525c-1.667,0.182-3.45-0.235-4.913,1.008
		c-0.352,0.299-0.647,0.723-1.168,0.784c0.384-0.905,1.132-1.56,1.66-2.375c3.029-4.677,5.35-9.65,6.814-15.022
		C94.762,132.224,95.371,129.349,93.954,126.486z M115.366,104.49c0.065-0.065,0.131-0.129,0.192-0.198
		c0.002-0.002-0.048-0.05-0.074-0.076c-0.061,0.069-0.123,0.137-0.183,0.207c-0.121,0.022-0.231,0.104-0.126,0.203
		C115.286,104.731,115.347,104.603,115.366,104.49z M115.682,104.168c0.844-0.418,1.6-1.167,2.49-0.794
		c0.87,0.365,1.288-0.047,1.862-0.531c2.742-2.318,5.427-4.72,8.652-6.384c0.295-0.152,0.622-0.569,0.933-0.159
		c0.276,0.364-0.124,0.645-0.344,0.916c-0.405,0.502-0.894,0.908-1.422,1.276c-2.56,1.783-5.056,3.665-7.203,5.925
		c-1.297,1.365-2.712,2.74-3.084,4.743c-0.069,0.374-0.359,0.836,0.066,1.094c0.381,0.231,0.768-0.118,1.076-0.346
		c0.74-0.548,1.575-0.924,2.355-1.386c1.167-0.692,2.635-0.853,3.605-1.733c3.015-2.736,5.936-5.575,9.019-8.238
		c0.376-0.324,0.649-0.708,0.653-1.23c0.024-2.756-0.109-5.485-0.552-8.226c-0.445-2.759-3.786-3.733-5.801-2.691
		c-3.316,1.715-6.457,3.796-9.167,6.278c-4.269,3.911-7.893,8.467-11.157,13.274c-0.192,0.283-0.517,0.566-0.428,1.155
		c1.482-0.984,2.322-2.448,3.646-3.393c2.056-1.468,2.542-4.348,4.974-5.532c1.118-0.544,1.615-1.856,2.663-2.527
		c0.526-0.337,1.125-0.808,1.765-0.419c0.675,0.41,0.226,1.076,0.165,1.641c-0.005,0.047,0.069,0.102,0.254,0.354
		c0.47-0.546,0.897-1.069,1.353-1.566c0.919-1.002,1.877-1.965,2.977-2.773c0.23-0.168,0.501-0.332,0.75-0.074
		c0.246,0.255,0.08,0.526-0.091,0.751c-0.119,0.157-0.279,0.284-0.421,0.424c-3.043,3.002-6.089,6-9.124,9.011
		C115.886,103.266,115.482,103.491,115.682,104.168z M133.492,112.851c1.234-0.45,2.45-0.907,3.677-1.336
		c0.608-0.213,1.373-0.481,1.813,0.051c0.733,0.886,1.082,0.265,1.619-0.154c0.512-0.399,1.086-1.508,1.706-0.759
		c0.712,0.859-0.462,1.371-1.055,1.744c-1.849,1.161-3.258,2.827-4.954,4.158c-0.305,0.239-0.617,0.593-0.537,1.104
		c0.421,0.034,0.68-0.158,0.942-0.329c2.008-1.312,4.233-2.255,6.193-3.652c0.443-0.315,1.017-0.477,1.373,0.099
		c0.332,0.537-0.104,0.902-0.512,1.172c-0.967,0.637-1.927,1.291-2.936,1.857c-2.18,1.223-4.381,2.409-6.618,3.9
		c0.81,0.254,1.581,0.067,2.003,0.735c0.414,0.655,0.899,0.457,1.434,0.148c1.037-0.597,1.955-1.397,3.097-1.813
		c0.216-0.079,0.477-0.28,0.648-0.027c0.202,0.298-0.056,0.509-0.279,0.688c-1.278,1.029-2.585,2.073-4.076,2.721
		c-3.145,1.368-4.655,4.308-7.047,6.807c2.275-0.282,4.158-0.927,6.013-1.625c5.5-2.07,9.592-5.446,10.877-11.553
		c0.545-2.59,0.332-5.174,0.401-7.764c0.032-1.198-0.007-2.403-0.104-3.597c-0.116-1.43-0.865-1.893-2.133-1.283
		c-4.173,2.008-7.926,4.626-11.22,7.889C133.628,112.219,133.389,112.402,133.492,112.851z M107.601,126.301
		c0.354,0.365,0.603,0.237,0.853,0.098c2.295-1.271,4.549-2.611,7.102-3.363c0.983-0.289,1.85-0.916,2.685-1.547
		c3.035-2.294,5.797-4.895,8.339-7.708c3.21-3.552,5.862-7.466,7.044-12.204c0.092-0.367,0.458-0.849,0.105-1.114
		c-0.407-0.306-0.692,0.247-0.96,0.485c-3.432,3.037-6.746,6.178-8.952,10.288c-0.365,0.68-0.635,1.368-0.765,2.123
		c-0.452,2.634-1.812,4.687-4.122,6.01c-2.63,1.506-5.318,2.915-8,4.327C109.649,124.372,108.639,125.335,107.601,126.301z
		 M101.381,125.299c0.491,0.017,0.628-0.28,0.822-0.517c1.265-1.543,2.517-3.099,3.82-4.61c0.605-0.701,1.113-1.442,1.563-2.253
		c1.053-1.894,2.295-3.805,3.965-5.057c2.746-2.059,4.29-4.838,5.827-7.708c0.069-0.128,0.107-0.321,0.062-0.451
		c-0.058-0.171-0.265-0.193-0.399-0.088c-1.371,1.066-3.288,1.39-4.261,2.974c-3.279,5.343-7.014,10.383-10.323,15.704
		C102.076,123.908,101.565,124.483,101.381,125.299z M114.146,112.678c-0.646,0.073-0.804,0.47-1.037,0.769
		c-3.021,3.874-6.081,7.715-9.456,11.292c-0.187,0.198-0.648,0.394-0.34,0.736c0.236,0.261,0.583,0.008,0.878-0.123
		c1.449-0.639,2.639-1.611,3.77-2.711C110.814,119.865,112.098,116.139,114.146,112.678z M110.93,107.145
		c-2.065,1.157-4.001,1.949-4.862,4.184c-1.164,3.021-1.754,4.968-1.444,5.923C106.816,114.034,109.2,110.947,110.93,107.145z
		 M120.913,128.737c0.228-0.045,0.471-0.054,0.681-0.141c3.562-1.472,7.127-2.938,10.673-4.448c0.596-0.254,1.634-0.671,1.441-1.187
		c-0.272-0.726-1.251-0.177-1.926-0.166c-0.195,0.003-0.392,0.071-0.583,0.127C127.327,124.056,123.954,126.101,120.913,128.737z
		 M113.259,120.448c1.851-0.993,3.783-1.861,5.528-3.014c1.589-1.05,2.529-2.651,2.712-4.905
		C118.203,114.827,115.622,117.494,113.259,120.448z M103.148,114.226c-2.156,3.487-3.578,7.362-4.978,11.257
		c1.097,0.326,1.638-0.223,1.955-1.107c0.242-0.675,0.359-1.409,0.68-2.04C102.11,119.772,103.402,117.217,103.148,114.226z
		 M117.112,128.738c2.729-1.815,5.077-3.907,7.893-5.314c-0.698-1.02-1.424-1.034-2.31-0.324c-1.243,0.996-2.395,2.176-3.892,2.758
		C117.474,126.373,117.185,127.326,117.112,128.738z M130.06,117.253c2.586-1.537,5.801-1.961,7.847-4.467
		C135.087,113.902,131.832,114.221,130.06,117.253z M112.184,105.019c2.441-2.391,4.686-4.963,6.668-7.761
		C115.928,99.23,113.565,101.689,112.184,105.019z M121.281,109.955c-2.868,1.441-5.61,2.529-6.399,5.764
		C117.249,114.218,119.13,112.184,121.281,109.955z M126.093,121.318c1.582-0.292,2.694-1.259,4.017-2.144
		C128.441,118.88,127.135,119.603,126.093,121.318z M126.798,128.734c1.013-0.441,2.444-0.19,3.268-1.429
		c0.132-0.198,0.359-0.359,0.243-0.613c-0.129-0.282-0.399-0.202-0.617-0.119c-1.072,0.41-2.142,0.826-3.207,1.254
		c-0.251,0.101-0.573,0.224-0.506,0.566C126.047,128.737,126.385,128.71,126.798,128.734z M115.007,129.332
		c0.85-0.182,0.458-0.977,0.7-1.446c0.126-0.243,0.076-0.637-0.353-0.521c-0.712,0.192-1.708,0.29-1.907,0.943
		C113.327,128.698,114.399,129.039,115.007,129.332z M125.808,130.483c-1.305-0.404-2.597-0.464-3.902-0.259
		c-0.441,0.069-0.855,0.238-1.167,0.562c-0.262,0.272-0.202,0.595,0.197,0.544C122.569,131.121,124.253,131.193,125.808,130.483z"/>
	<path fill="#43535B" d="M93.954,126.486c1.417,2.863,0.808,5.738,0.027,8.604c-1.464,5.372-3.785,10.345-6.814,15.022
		c-0.528,0.815-1.276,1.47-1.66,2.375c-2.358,1.211-3.798,3.491-5.884,5.031c-3.661,2.702-7.624,3.852-12.07,2.473
		c-2.253-0.698-3.862-2.355-5.307-4.145c-0.576-0.714-1.072-1.492-1.605-2.24c-0.323-0.454-0.566-0.584-0.941,0.021
		c-2.735,4.415-6.013,8.466-8.643,12.955c-0.642,1.096-1.532,2.044-2.266,3.089c-0.522,0.743-1.155,1.418-2.066,0.944
		c-0.89-0.463-0.393-1.377-0.197-2.052c1.381-4.759,2.863-9.489,4.206-14.259c1.039-3.689,1.938-7.416,3.001-11.1
		c0.949-3.288,2.54-6.289,3.974-9.353c1.205-2.575,2.185-5.232,3.302-7.837c0.216-0.503,0.192-0.909-0.232-1.29
		c-2.335-2.096-4.079-4.711-6.137-7.05c-0.526-0.597-0.925-0.666-1.621-0.273c-1.227,0.693-2.401,0.53-3.336-0.302
		c-0.867-0.771-1.016-1.809-0.541-3.205c0.215-0.63,0.908-1.194,0.632-1.871c-0.423-1.039-1.211-1.882-2.01-2.662
		c-0.634-0.619-0.751-0.078-0.838,0.469c-0.364,2.28-1.345,4.168-3.444,5.333c-0.964,0.535-1.971,0.657-3.001,0.258
		c-0.886-0.343-1.427-1.018-1.578-1.959c-0.148-0.916,0.353-1.56,1.066-1.988c0.949-0.57,1.678-1.345,2.354-2.191
		c0.328-0.41,0.692-0.86,0.657-1.383c-0.09-1.327,0.539-2.241,1.417-3.143c0.578-0.593,1.039-0.674,1.639-0.191
		c1.619,1.301,3.275,2.573,4.57,4.216c0.556,0.705,0.836,0.61,1.066-0.173c0.543-1.847,1.522-3.468,2.612-5.028
		c0.604-0.864,1.314-0.915,2.28-0.438c1.809,0.893,3.401,2.104,5.018,3.262c2.726,1.952,5.553,3.811,7.89,6.234
		c2.163,2.242,4.87,3.272,7.762,3.998c3.299,0.829,6.048,2.667,8.693,4.687c2.417,1.846,5.191,3.153,7.563,5.063
		C93.602,126.473,93.798,126.455,93.954,126.486z M71.825,138.645c0-0.599,0.09-1.214-0.015-1.794
		c-0.496-2.744-1.308-5.299-4.183-6.542c-1.616-0.698-2.552-0.531-3.767,0.722c-0.975,1.006-1.512,2.223-1.909,3.546
		c-0.215,0.716-0.037,0.841,0.663,0.922c2.188,0.253,3.675,1.926,3.755,4.122c0.074,2.019-0.337,3.915-1.712,5.463
		c-0.515,0.58-0.273,0.894,0.159,1.264c1.123,0.961,2.851,0.789,4.13-0.418C71.043,143.952,72.156,141.576,71.825,138.645z
		 M56.535,108.493c0.032,1.957-0.012,3.743-0.474,5.487c-0.1,0.379,0.135,0.669,0.398,0.944c1.653,1.73,3.286,3.479,4.94,5.208
		c2.061,2.154,2.067,2.149,3.662-0.432c1.852-2.998,1.834-2.975-0.944-5.265c-1.966-1.62-4.126-2.989-6.005-4.718
		C57.684,109.323,57.338,108.813,56.535,108.493z M53.434,154.262c1.113-1.941,2.059-3.948,2.792-6.058
		c0.256-0.737,0.134-1.279-0.461-2.056C54.81,148.931,54.046,151.571,53.434,154.262z M73.244,146.044
		c-1.29,1.526-2.399,3.157-4.053,4.299c-0.302,0.209-0.971,0.254-0.829,0.704c0.175,0.553,0.827,0.301,1.272,0.298
		c0.3-0.002,0.688-0.094,0.884-0.294C71.895,149.646,72.807,147.971,73.244,146.044z M73.439,145.378
		c-0.018,0.075-0.059,0.146-0.044,0.2c0.031,0.109,0.098,0.107,0.149,0.005c0.015-0.03,0.032-0.08,0.019-0.1
		C73.535,145.443,73.486,145.416,73.439,145.378z"/>
	<path fill="#43535B" d="M108.806,163.537c1.504-0.411,2.388-1.595,3.175-2.772c3.305-4.94,5.34-10.378,6.338-16.243
		c0.675-3.964,0.906-7.914,0.393-11.903c-0.116-0.899,0.302-1.089,1.059-0.739c1.234,0.571,2.406,1.234,3.416,2.17
		c0.61,0.565,1.13,1.245,1.905,1.616c1.254,1.074,2.354,2.282,3.204,3.706c-0.012,0.51,0.255,0.939,0.51,1.323
		c1.443,2.178,1.864,4.636,1.561,7.12c-0.482,3.955-1.069,7.919-2.339,11.718c-0.464,1.389-1.206,2.699-1.933,3.982
		c-1.938,3.422-3.463,7.137-6.832,9.556c-1.063,0.763-1.114,1.925-0.774,3.113c-0.654,1.962-1.305,3.925-1.963,5.885
		c-0.101,0.302-0.223,0.599-0.35,0.891c-0.802,1.842-1.318,3.612-0.839,5.761c0.533,2.395-0.35,4.833-0.927,7.193
		c-0.926,3.784-3.308,6.868-5.149,10.208c-0.317,0.576-0.883,1.021-1.606,0.675c-0.722-0.346-0.691-1.023-0.472-1.668
		c0.501-1.474,0.973-2.958,1.868-4.265c0.933-1.363,1.827-2.686,2.032-4.465c0.236-2.045,1.155-4.068,1.058-6.104
		c-0.272-5.759,0.96-11.313,1.867-16.919c0.128-0.791,0.32-1.547-0.363-2.244c-0.537-0.547-0.771-0.71-1.048,0.199
		c-0.805,2.633-1.677,5.246-2.544,7.86c-0.226,0.68-0.511,1.342-0.806,1.995c-0.718,1.591-1.185,3.255-0.997,4.996
		c0.282,2.613,0.064,5.205-0.433,7.739c-0.583,2.97-2.186,5.551-3.772,8.096c-0.328,0.527-0.889,0.879-1.546,0.511
		c-0.633-0.355-0.775-0.964-0.67-1.658c0.322-2.132,1.283-4.026,2.228-5.919c0.301-0.603,0.4-1.161,0.342-1.831
		c-0.218-2.522,0.338-5.026,0.369-7.512c0.053-4.396,1.189-8.5,2.378-12.635c0.533-1.853,1.201-3.674,2.316-5.241
		c0.862-1.212,0.585-2.202-0.1-3.274C109.167,164.156,108.99,163.844,108.806,163.537z"/>
	<path fill="#43535B" d="M91.587,150.694c0.889-0.62,1.286-1.633,1.687-2.525c1.753-3.898,3.138-7.943,4.192-12.085
		c0.727-2.857,0.699-5.782,0.221-8.684c-0.176-1.066,0.134-1.384,1.221-1.43c2.652-0.113,5.231,0.194,7.706,1.117
		c0.914,0.341,1.252,1.327,1.509,2.202c1.023,3.483,1.272,7.069,1.127,10.668c-0.093,2.308-0.256,4.617-0.587,6.918
		c-0.412,2.868-1.143,5.527-3.294,7.625c-0.567,0.553-1.021,1.222-1.527,1.838c-0.379-0.539-0.715-0.73-1.435-0.335
		c-2.02,1.11-3.981,2.367-6.264,2.936c-0.849,0.212-1.103,1.024-1.016,1.707c0.229,1.811-0.489,3.301-1.402,4.718
		c-1.406,2.182-2.883,4.32-4.694,6.2c-0.475,0.493-0.999,0.924-1.669,1.13c-0.514,0.158-1.028,0.235-1.459-0.19
		c-0.411-0.404-0.226-0.864-0.136-1.344c0.721-3.842,2.742-7.122,4.513-10.511c0.517-0.99,1.05-1.973,1.607-2.942
		c0.561-0.975,1.439-1.538,2.555-1.513c2.206,0.048,3.749-1.451,5.58-2.275c0.375-0.169,0.407-0.467,0.146-0.777
		c-0.154-0.183-0.327-0.351-0.502-0.514c-2.535-2.363-2.532-2.358-5.401-0.465c-1.599,1.055-3.203,2.102-4.821,3.129
		c-0.554,0.351-0.903,0.747-0.784,1.456c0.118,0.705-0.197,1.336-0.459,1.958c-1.474,3.49-3.587,6.534-6.756,8.65
		c-1.285,0.858-2.652,1.593-3.829,2.615c-0.238,0.207-0.518,0.385-0.808,0.511c-0.712,0.309-1.504,0.905-2.161,0.04
		c-0.629-0.829-0.338-1.876,0.322-2.398c1.436-1.137,2.292-2.754,3.608-3.96c1.218-1.117,2.273-2.373,3.164-3.744
		c2.446-3.765,5.283-7.111,9.34-9.241C91.278,151.074,91.419,150.858,91.587,150.694z"/>
	<path fill="#E7922D" d="M118.489,176.183c-0.34-1.188-0.29-2.35,0.774-3.113c3.369-2.419,4.894-6.134,6.832-9.556
		c0.727-1.283,1.469-2.594,1.933-3.982c1.27-3.798,1.857-7.762,2.339-11.718c0.303-2.483-0.118-4.941-1.561-7.12
		c-0.255-0.385-0.522-0.813-0.51-1.323c3.607,4.074,6.298,8.632,7.189,14.076c0.554,3.384,1.13,6.808,0.86,10.232
		c-0.337,4.272-0.263,8.634-1.92,12.719c-0.099,0.244-0.049,0.548-0.07,0.823c-0.52-0.191-0.7,0.242-0.954,0.525
		c-1.465,1.635-3.189,2.759-5.469,2.799c-2.466-0.743-5.019-1.259-7.151-2.854C120.05,177.144,119.255,176.683,118.489,176.183z"/>
	<path fill="#43535B" d="M127.932,180.546c2.28-0.04,4.004-1.164,5.469-2.799c0.253-0.283,0.434-0.717,0.954-0.525
		c0.624,2.806,1.841,5.44,2.386,8.269c0.136,0.706,0.47,0.934,0.995,0.279c0.361-0.451,0.793-0.774,1.337-0.968
		c0.623-0.222,1.255-0.44,1.726,0.234c0.447,0.64,0.751,1.32,0.277,2.108c-0.626,1.04-1.523,1.847-2.347,2.709
		c-0.562,0.588-0.762,1.169-0.512,1.944c1.175,3.647,2.379,7.284,3.489,10.951c1.56,5.154,3.045,10.33,4.088,15.62
		c0.088,0.447,0.153,1-0.308,1.167c-0.44,0.159-0.631-0.388-0.824-0.719c-1.695-2.902-3.006-5.991-4.402-9.039
		c-3.923-8.567-7.215-17.398-10.927-26.054C128.877,182.659,128.4,181.604,127.932,180.546z"/>
	<path fill="#43535B" d="M86.45,221.669c-4.063-0.537-7.174-1.303-10.165-3.708c-2.967-2.677-5.668-5.625-7.317-9.287
		c-0.937-2.081-1.448-4.308-1.346-6.632c0.025-0.571,0.006-1.228,0.692-1.365c0.689-0.137,0.948,0.509,1.169,1.002
		c0.604,1.346,1.03,2.786,1.747,4.064c2.647,4.716,5.858,8.457,10.776,10.878c1.968,0.969,4.463,1.372,6.545,1.842
		c0.909,0.205,1.784,0.456,2.525,1.033c0.908,0.707,0.864,1.291-0.172,1.774C89.423,221.962,87.786,221.607,86.45,221.669z"/>
	<path fill="#43535B" d="M170.138,118.84c-0.059,5.963-2.073,10.625-5.584,14.69c-0.852,0.986-1.515,2.169-2.807,2.717
		c-0.957,0.406-1.902,0.8-2.691-0.244c-0.73-0.967,0.073-1.656,0.561-2.323c1.131-1.545,2.279-3.084,3.521-4.539
		c2.156-2.526,2.949-5.569,3.138-8.728c0.2-3.339,0.048-6.702-0.362-10.038c-0.015-0.118-0.032-0.24-0.02-0.358
		c0.066-0.614-0.127-1.418,0.607-1.675c0.765-0.268,1.085,0.498,1.456,0.986c1.263,1.658,1.54,3.657,1.827,5.628
		C169.997,116.413,170.056,117.894,170.138,118.84z"/>
	<path fill="#43535B" d="M151.268,87.858c0.047-2.307,0.432-4.682-0.414-6.896c-1.134-2.967-2.137-6.04-4.934-8.021
		c-0.672-0.476-1.183-1.183-1.758-1.792c-0.279-0.296-0.566-0.622-0.29-1.056c0.263-0.413,0.682-0.563,1.148-0.451
		c0.385,0.092,0.754,0.254,1.125,0.397c4.048,1.552,6.385,4.676,7.741,8.616c1.587,4.61,1.672,9.238-0.182,13.817
		c-0.163,0.401-0.388,0.806-0.682,1.117c-0.332,0.352-0.598,1.048-1.19,0.801c-0.489-0.204-0.541-0.871-0.552-1.377
		C151.246,91.295,151.268,89.576,151.268,87.858z"/>
	<path fill="#43535B" d="M146.388,233.66c0-0.952-0.03-2.552,0.012-4.149c0.022-0.845,0.107-1.778,1.16-1.991
		c1.067-0.215,1.731,0.461,2.187,1.316c0.338,0.634,0.557,1.327,0.626,2.052c0.247,2.589,0.413,5.177,0.079,7.775
		c-0.121,0.944-0.393,1.788-1.115,2.447c-0.933,0.851-1.941,0.731-2.624-0.328c-0.424-0.658-0.602-1.373-0.553-2.165
		C146.247,237.181,146.295,235.743,146.388,233.66z"/>
	<path fill="#43535B" d="M162.032,118.092c-0.562,2.877-0.53,6.173-2.82,8.739c-0.611,0.684-1.278,1.468-2.334,0.877
		c-1.073-0.601-1.373-1.884-0.752-3.038c1.976-3.673,3.329-7.49,2.962-11.757c-0.039-0.456-0.283-1.178,0.419-1.332
		c0.811-0.179,1.259,0.487,1.498,1.119C161.628,114.35,161.915,116.083,162.032,118.092z"/>
	<path fill="#43535B" d="M148.809,85.293c-0.11,1.11-0.157,2.231-0.352,3.325c-0.15,0.843-0.546,1.676-1.566,1.693
		c-1.107,0.019-1.336-0.903-1.43-1.743c-0.128-1.146-0.197-2.308-0.164-3.459c0.062-2.123-0.684-3.968-1.757-5.73
		c-0.352-0.577-0.733-1.148-0.996-1.766c-0.377-0.885-0.013-1.389,0.953-1.402c1.301-0.016,2.166,0.768,2.84,1.733
		C147.869,80.143,148.944,82.514,148.809,85.293z"/>
	<path fill="#43535B" d="M109.315,261.392c0.031-0.808,0.255-1.476,0.999-1.814c0.759-0.345,1.277,0.134,1.789,0.599
		c1.582,1.439,2.44,3.437,3.86,5.003c0.474,0.523,0.987,1.008,1.204,1.746c0.364,1.238-0.571,2.508-1.876,2.444
		c-0.449-0.022-0.878-0.146-1.224-0.425c-2.256-1.818-3.941-4.029-4.657-6.889C109.353,261.826,109.342,261.585,109.315,261.392z"/>
	<path fill="#43535B" d="M84.322,212.039c-2.639-0.312-4.672-1.699-6.331-3.687c-1.205-1.444-2.3-2.969-2.487-4.931
		c-0.04-0.418-0.232-0.955,0.183-1.231c0.486-0.322,0.909,0.13,1.279,0.387c0.486,0.338,1.041,0.686,1.338,1.17
		c1.528,2.49,3.946,3.874,6.354,5.285c0.172,0.101,0.357,0.179,0.521,0.29c0.605,0.41,1.263,0.842,0.98,1.709
		C85.882,211.886,85.161,212.104,84.322,212.039z"/>
	<path fill="#43535B" d="M148.406,251.316c-0.665,2.586-1.62,5.225-4.018,7.05c-0.741,0.564-1.632,0.769-2.437,0.117
		c-0.854-0.692-0.842-1.697-0.362-2.512c1.213-2.06,2.531-4.06,3.873-6.039c0.459-0.676,1.182-1.19,2.062-0.814
		C148.358,249.476,148.285,250.345,148.406,251.316z"/>
	<path fill="#43535B" d="M146,182.271c-1.435,0.043-2.326-1.403-1.57-2.561c1.396-2.137,3.299-3.765,5.671-4.771
		c0.717-0.304,1.352-0.001,1.751,0.64c0.483,0.776,0.165,1.493-0.39,2.058c-1.279,1.301-2.596,2.564-3.926,3.813
		C147.073,181.885,146.524,182.225,146,182.271z"/>
	<path fill="#43535B" d="M111.255,223.744c0.332-1.767,0.935-3.695,2.186-5.359c0.431-0.573,1.053-0.923,1.786-0.657
		c0.805,0.291,0.997,0.996,0.895,1.768c-0.244,1.835-0.968,3.535-1.573,5.262c-0.315,0.899-0.91,1.71-2.038,1.435
		C111.415,225.927,111.256,224.977,111.255,223.744z"/>
	<path fill="#43535B" d="M123.056,207.643c-0.481,2.255-1.384,4.317-2.958,6.032c-0.475,0.517-1.129,0.81-1.842,0.417
		c-0.768-0.424-1.043-1.151-0.786-1.943c0.683-2.104,1.821-3.974,3.216-5.678c0.359-0.438,0.905-0.696,1.507-0.412
		C122.848,206.367,123.103,206.92,123.056,207.643z"/>
	<path fill="#43535B" d="M157.963,172.589c-0.647,0.063-1.189-0.25-1.497-0.868c-0.308-0.618-0.267-1.309,0.243-1.777
		c1.674-1.533,3.64-2.541,5.892-2.891c0.688-0.107,1.226,0.337,1.53,0.946c0.263,0.526,0.235,1.074-0.13,1.578
		C163.398,170.409,159.102,172.584,157.963,172.589z"/>
	<path fill="#43535B" d="M112.125,236.148c-0.108,0.75-0.211,1.868-0.442,2.959c-0.265,1.251-1.156,1.982-2.125,1.89
		c-1.042-0.099-1.759-1.035-1.724-2.36c0.034-1.286,0.272-2.551,0.818-3.721c0.414-0.886,0.975-1.796,2.148-1.511
		C111.989,233.695,112.181,234.716,112.125,236.148z"/>
	<path fill="#43535B" d="M110.937,249.573c-0.032,0.828,0.178,1.834-0.366,2.766c-0.822,1.407-2.15,1.444-2.995,0.062
		c-0.828-1.355-0.474-5.477,0.572-6.656c0.695-0.784,1.788-0.551,2.325,0.503C110.983,247.25,110.883,248.344,110.937,249.573z"/>
	<path fill="#43535B" d="M125.242,271.895c-1.282-0.215-2.774-0.081-3.516-1.66c-0.416-0.885-0.231-1.483,0.689-1.772
		c1.326-0.417,2.659-0.828,4.011-1.147c1.454-0.343,2.494,0.306,2.941,1.722c0.307,0.972-0.387,1.483-0.997,1.974
		C127.718,271.535,126.179,271.926,125.242,271.895z"/>
	<path fill="#43535B" d="M130.702,196.946c0.026,1.517-2.108,4.656-3.512,5.164c-1.036,0.375-1.975-0.189-1.85-1.271
		c0.25-2.152,1.312-3.94,3.097-5.153C129.511,194.957,130.681,195.698,130.702,196.946z"/>
	<path fill="#43535B" d="M140.276,264.286c0.014,2.06-2.262,4.196-4.256,4.068c-1.014-0.065-1.577-0.657-1.874-1.57
		c-0.289-0.888,0.4-1.174,0.95-1.558c0.881-0.615,1.731-1.27,2.483-2.044c0.498-0.513,1.06-0.897,1.795-0.513
		C140.038,263.015,140.319,263.608,140.276,264.286z"/>
	<path fill="#E7922D" d="M73.244,146.044c-0.437,1.926-1.35,3.601-2.726,5.007c-0.196,0.2-0.584,0.292-0.884,0.294
		c-0.445,0.004-1.097,0.255-1.272-0.298c-0.142-0.45,0.527-0.495,0.829-0.704C70.845,149.201,71.954,147.571,73.244,146.044z"/>
	<path fill="#E7922D" d="M73.439,145.378c0.047,0.038,0.096,0.065,0.124,0.106c0.014,0.02-0.003,0.07-0.019,0.1
		c-0.052,0.102-0.119,0.103-0.149-0.005C73.379,145.524,73.42,145.453,73.439,145.378z"/>
</g>
</svg>
