<?xml version="1.0" encoding="utf-8"?>
<!-- Generator: Adobe Illustrator 17.0.0, SVG Export Plug-In . SVG Version: 6.00 Build 0)  -->
<!DOCTYPE svg PUBLIC "-//W3C//DTD SVG 1.1//EN" "http://www.w3.org/Graphics/SVG/1.1/DTD/svg11.dtd">
<svg version="1.1" xmlns="http://www.w3.org/2000/svg" xmlns:xlink="http://www.w3.org/1999/xlink" x="0px" y="0px"
	 width="566.93px" height="566.93px" viewBox="0 0 566.93 566.93" enable-background="new 0 0 566.93 566.93" xml:space="preserve">
<g id="图层_2" display="none">
	
		<image display="inline" overflow="visible" width="564" height="2641" xlink:href="../../icon-符号/76fb5603dc7e79a619abf63032e7f8b9.jpg"  transform="matrix(1.7084 0 0 1.7084 -99.6592 -1507.8358)">
	</image>
</g>
<g id="图层_4">
	<path fill="#231815" d="M472.928,332.791c-2.572-54.021-12.112-67.672-27.546-96.826c-19.228-36.32-66.776-49.801-80.495-49.801
		c-13.719,0-30.011-1.715-50.591,17.149c-20.579,18.864-23.152,10.29-32.584,10.29c0-3.43-3.125-11.159,3.43-24.867
		c6.963-14.561,11.147-14.577,24.867-22.294c13.719-7.717,31.982-8.7,44.844-18.132c12.862-9.432,22.039-35.888,22.039-37.603
		c0-1.715-6.002-13.72-8.575,1.715c-2.572,15.434-17.149,34.299-36.014,39.444c-18.864,5.145-33.971,10.335-45.446,20.579
		c-10.314,9.208-18.007,20.579-18.864,44.588c-2.572-0.857-12.005,2.572-24.009-7.717c-12.005-10.29-36.103-27.795-60.598-23.932
		c-65.743,10.367-96.319,106.249-96.319,132.831c0,26.582-5.145,138.91,34.299,139.768c39.444,0.857,69.455-48.876,98.609-75.457
		c7.717,0,96.894-0.857,126.906,0.857c16.292,15.434,66.883,81.46,96.037,78.03C480.896,456.943,475.501,386.812,472.928,332.791z
		 M225.339,304.69h-30.632v33.596h-26.679V304.69h-28.656v-19.762h28.656v-33.596h26.679v33.596h30.632V304.69z M383.531,247.882
		c8.368,0,15.152,6.784,15.152,15.152s-6.784,15.152-15.152,15.152c-8.368,0-15.152-6.784-15.152-15.152
		S375.163,247.882,383.531,247.882z M356.759,310.272c-8.368,0-15.152-6.784-15.152-15.152s6.784-15.152,15.152-15.152
		c8.368,0,15.152,6.784,15.152,15.152S365.127,310.272,356.759,310.272z M387.096,338.793c-8.368,0-15.152-6.784-15.152-15.152
		s6.784-15.152,15.152-15.152s15.152,6.784,15.152,15.152S395.464,338.793,387.096,338.793z M416.475,307.598
		c-8.368,0-15.152-6.784-15.152-15.152c0-8.368,6.784-15.152,15.152-15.152c8.368,0,15.152,6.784,15.152,15.152
		C431.627,300.815,424.843,307.598,416.475,307.598z"/>
</g>
<g id="图层_3" display="none">
	<path display="inline" fill="#231815" d="M247.255,146.282c38.544-7.975,145.376-21.885,187.582-28.137
		c42.206-6.253,35.953-4.69,34.39,40.643c-1.563,45.332-10.541,175.655-15.967,217.98c-5.569,43.441-106.353,109.609-159.53,35.813
		c-53.928-74.839,76.563-112.308,117.206-85.734c3.256-60.773,3.256-87.376,3.256-113.95c-34.39,4.69-131.134,17.493-153.019,20.62
		c-6.253,62.527-7.665,162.876-12.354,192.576c-4.69,29.701-138.494,109.12-173.513-14.069
		c-17.993-63.293,91.182-66.211,124.009-53.705c9.767-103.098,7.028-110.726,11.988-147.946
		C217.762,161.89,201.922,155.661,247.255,146.282z"/>
</g>
<g id="图层_1" display="none">
	<path display="inline" d="M475.449,291.822c0,40.555-35.958,73.431-80.315,73.431H168.131c-44.357,0-80.315-32.876-80.315-73.431
		V163.033c0-40.555,35.958-73.431,80.315-73.431h227.003c44.357,0,80.315,32.876,80.315,73.431V291.822z"/>
	<path display="inline" fill="#FFFFFF" stroke="#000000" stroke-miterlimit="5" d="M462.202,286.253
		c0,36.954-33.323,66.911-74.43,66.911H177.404c-41.106,0-74.43-29.957-74.43-66.911V168.899c0-36.954,33.323-66.911,74.43-66.911
		h210.369c41.106,0,76.155,20.78,74.43,66.911v117.354H462.202z"/>
	<path display="inline" d="M97.965,164.965c50.265,23.844,133.635,81.63,163.484,86.812c23.008,3.994,24.129,2.5,40.599-1.933
		c28.954-7.794,153.806-84.016,163.351-89.686c2.044-36.7-30.461-69.445-132.552-62.213c-89.738,6.357-134.562-10.81-201.727,4.547
		C122.059,104.563,97.965,164.965,97.965,164.965z"/>
	<path display="inline" d="M343.066,281.979c0,4.394-3.562,7.956-7.956,7.956H219.179c-4.394,0-7.956-3.562-7.956-7.956l0,0
		c0-4.394,3.562-7.956,7.956-7.956H335.11C339.504,274.023,343.066,277.585,343.066,281.979L343.066,281.979z"/>
	<path display="inline" d="M343.066,312.288c0,4.394-3.562,7.956-7.956,7.956H219.179c-4.394,0-7.956-3.562-7.956-7.956l0,0
		c0-4.394,3.562-7.956,7.956-7.956H335.11C339.504,304.332,343.066,307.894,343.066,312.288L343.066,312.288z"/>
</g>
</svg>
