<?xml version="1.0" encoding="utf-8"?>
<!-- Generator: Adobe Illustrator 17.0.0, SVG Export Plug-In . SVG Version: 6.00 Build 0)  -->
<!DOCTYPE svg PUBLIC "-//W3C//DTD SVG 1.1//EN" "http://www.w3.org/Graphics/SVG/1.1/DTD/svg11.dtd">
<svg version="1.1" id="图层_1" xmlns="http://www.w3.org/2000/svg" xmlns:xlink="http://www.w3.org/1999/xlink" x="0px" y="0px"
	 width="566.93px" height="566.93px" viewBox="0 0 566.93 566.93" enable-background="new 0 0 566.93 566.93" xml:space="preserve">
<path d="M398.927,151.475H171.924c-44.357,0-80.315,32.876-80.315,73.431v128.789c0,40.555,35.958,73.431,80.315,73.431h227.003
	c44.357,0,80.315-32.876,80.315-73.431V224.906C479.242,184.351,443.284,151.475,398.927,151.475z M465.996,230.772v117.354h-0.001
	c0,36.954-33.323,66.911-74.43,66.911H181.197c-41.106,0-74.43-29.957-74.43-66.911V230.772c0-36.954,33.323-66.911,74.43-66.911
	h210.369C432.672,163.861,467.721,184.641,465.996,230.772z"/>
<path d="M101.758,226.838c50.265,23.844,133.635,81.63,163.484,86.812c23.008,3.994,24.129,2.5,40.599-1.933
	c28.954-7.794,153.806-84.016,163.351-89.686c2.044-36.7-30.461-69.445-132.552-62.213c-89.738,6.357-134.562-10.81-201.727,4.547
	C125.852,166.436,101.758,226.838,101.758,226.838z"/>
<path d="M346.859,343.852c0,4.394-3.562,7.956-7.956,7.956H222.972c-4.394,0-7.956-3.562-7.956-7.956l0,0
	c0-4.394,3.562-7.956,7.956-7.956h115.931C343.297,335.896,346.859,339.458,346.859,343.852L346.859,343.852z"/>
<path d="M346.859,374.161c0,4.394-3.562,7.956-7.956,7.956H222.972c-4.394,0-7.956-3.562-7.956-7.956l0,0
	c0-4.394,3.562-7.956,7.956-7.956h115.931C343.297,366.205,346.859,369.767,346.859,374.161L346.859,374.161z"/>
</svg>
