<?xml version="1.0" encoding="utf-8"?>
<!-- Generator: Adobe Illustrator 17.0.0, SVG Export Plug-In . SVG Version: 6.00 Build 0)  -->
<!DOCTYPE svg PUBLIC "-//W3C//DTD SVG 1.1//EN" "http://www.w3.org/Graphics/SVG/1.1/DTD/svg11.dtd">
<svg version="1.1" xmlns="http://www.w3.org/2000/svg" xmlns:xlink="http://www.w3.org/1999/xlink" x="0px" y="0px"
	 width="566.93px" height="566.93px" viewBox="0 0 566.93 566.93" enable-background="new 0 0 566.93 566.93" xml:space="preserve">
<g id="图层_2" display="none">
	
		<image display="inline" overflow="visible" width="564" height="2641" xlink:href="../../icon-符号/76fb5603dc7e79a619abf63032e7f8b9.jpg"  transform="matrix(1.7084 0 0 1.7084 -89.5229 -1990.5494)">
	</image>
</g>
<g id="图层_7">
	<path fill="#231815" d="M475.575,501.628c0.837-7.166,1.316-14.442,1.316-21.833c0-102.898-83.416-186.314-186.314-186.314
		s-186.314,83.416-186.314,186.314c0,7.391,0.479,14.666,1.316,21.833H475.575z"/>
	<path fill="#231815" d="M287.633,78.016c-60.199,0-109,48.801-109,109s48.801,109,109,109s109-48.801,109-109
		S347.832,78.016,287.633,78.016z M321.917,242.575h-71.579c-4.575,0-8.285-4.405-8.285-9.838s3.709-9.838,8.285-9.838h71.579
		c4.575,0,8.285,4.405,8.285,9.838S326.492,242.575,321.917,242.575z"/>
</g>
<g id="图层_5" display="none">
	<path display="inline" fill="#231815" d="M279.261,94.758c-55.682,0-100.822,45.14-100.822,100.822v83.362
		c0,55.682,45.14,100.822,100.822,100.822c55.683,0,100.822-45.14,100.822-100.822V195.58
		C380.084,139.898,334.944,94.758,279.261,94.758z M349.667,259.851c0,38.905-31.539,70.444-70.444,70.444
		s-70.444-31.539-70.444-70.444v-58.244c0-38.905,31.539-70.444,70.444-70.444s70.444,31.539,70.444,70.444V259.851z"/>
	<path display="inline" fill="#231815" d="M442.493,231.818h-0.034c0-4.684-4.278-8.482-9.554-8.482H131.523
		c-5.276,0-9.554,3.797-9.554,8.482v193.539h0.046c-0.007,0.137-0.046,0.267-0.046,0.406c0,4.684,4.278,8.482,9.554,8.482h301.382
		c5.276,0,9.554-3.797,9.554-8.482c0-0.139-0.039-0.268-0.046-0.406h0.08V231.818z"/>
	<path display="inline" fill="#FFFFFF" d="M305.148,318.897c0-14.503-11.757-26.259-26.259-26.259
		c-14.503,0-26.259,11.756-26.259,26.259c0,11.736,7.751,21.557,18.374,24.921v30.399c0,4.061,3.292,7.353,7.353,7.353
		s7.353-3.292,7.353-7.353v-30.068C296.882,341.13,305.148,331.024,305.148,318.897z"/>
</g>
<g id="图层_5_x5F_复制" display="none">
	<path display="inline" fill="#231815" d="M314.527,289.656c-34.188,9.251-70.591-8.487-83.865-42.213l-21.332-54.197
		c-14.249-36.202,3.548-77.1,39.749-91.349c36.202-14.249,77.1,3.548,91.349,39.749l11.607,29.489l28.651-10.257l-14.162-35.981
		c-20.393-51.814-78.929-77.285-130.743-56.891c-51.814,20.393-77.285,78.929-56.891,130.742l30.531,77.569
		c19.226,48.849,72.354,74.276,121.789,59.938L314.527,289.656z"/>
	<path display="inline" fill="#231815" d="M442.493,231.818h-0.034c0-4.684-4.278-8.482-9.554-8.482H131.523
		c-5.276,0-9.554,3.797-9.554,8.482v193.539h0.046c-0.007,0.137-0.046,0.267-0.046,0.406c0,4.684,4.278,8.482,9.554,8.482h301.382
		c5.276,0,9.554-3.797,9.554-8.482c0-0.139-0.039-0.268-0.046-0.406h0.08V231.818z"/>
	<path display="inline" fill="#FFFFFF" d="M305.148,318.897c0-14.503-11.757-26.259-26.259-26.259
		c-14.503,0-26.259,11.756-26.259,26.259c0,11.736,7.751,21.557,18.374,24.921v30.399c0,4.061,3.292,7.353,7.353,7.353
		s7.353-3.292,7.353-7.353v-30.068C296.882,341.13,305.148,331.024,305.148,318.897z"/>
</g>
<g id="图层_4" display="none">
	<path display="inline" fill="#231815" d="M183.385,185.383c24.496-3.863,48.594,13.643,60.598,23.932s21.437,6.86,24.009,7.717
		c0.857-24.009,8.55-35.381,18.864-44.588c11.475-10.244,26.582-15.434,45.446-20.579s33.441-24.009,36.014-39.444
		s8.575-3.43,8.575-1.715s-9.177,28.171-22.039,37.603s-31.124,10.415-44.844,18.132c-13.72,7.717-17.904,7.733-24.867,22.294
		c-6.555,13.708-3.43,21.437-3.43,24.867c9.432,0,12.005,8.575,32.584-10.29s36.871-17.149,50.591-17.149
		c13.72,0,61.267,13.481,80.495,49.801c15.434,29.154,24.974,42.806,27.546,96.826s7.968,124.152-30.011,128.621
		c-29.154,3.43-79.745-62.595-96.037-78.03c-30.011-1.715-119.188-0.857-126.906-0.857c-29.154,26.582-59.165,76.315-98.609,75.457
		c-39.444-0.857-34.299-113.186-34.299-139.768S117.642,195.75,183.385,185.383z"/>
	<polygon display="inline" fill="#FFFFFF" points="225.339,284.928 194.707,284.928 194.707,251.331 168.028,251.331 
		168.028,284.928 139.372,284.928 139.372,304.69 168.028,304.69 168.028,338.286 194.707,338.286 194.707,304.69 225.339,304.69 	
		"/>
	<circle display="inline" fill="#FFFFFF" cx="383.531" cy="263.034" r="15.152"/>
	<circle display="inline" fill="#FFFFFF" cx="387.096" cy="323.641" r="15.152"/>
	<circle display="inline" fill="#FFFFFF" cx="416.475" cy="292.446" r="15.152"/>
	<circle display="inline" fill="#FFFFFF" cx="356.759" cy="295.12" r="15.152"/>
</g>
<g id="图层_3" display="none">
	<path display="inline" fill="#231815" d="M247.255,146.282c38.544-7.975,145.376-21.885,187.582-28.137
		c42.206-6.253,35.953-4.69,34.39,40.643c-1.563,45.332-10.541,175.655-15.967,217.98c-5.569,43.441-106.353,109.609-159.53,35.813
		c-53.928-74.839,76.563-112.308,117.206-85.734c3.256-60.773,3.256-87.376,3.256-113.95c-34.39,4.69-131.134,17.493-153.019,20.62
		c-6.253,62.527-7.665,162.876-12.354,192.576c-4.69,29.701-138.494,109.12-173.513-14.069
		c-17.993-63.293,91.182-66.211,124.009-53.705c9.767-103.098,7.028-110.726,11.988-147.946
		C217.762,161.89,201.922,155.661,247.255,146.282z"/>
</g>
<g id="图层_1" display="none">
	<path display="inline" d="M475.449,291.822c0,40.555-35.958,73.431-80.315,73.431H168.131c-44.357,0-80.315-32.876-80.315-73.431
		V163.033c0-40.555,35.958-73.431,80.315-73.431h227.003c44.357,0,80.315,32.876,80.315,73.431V291.822z"/>
	<path display="inline" fill="#FFFFFF" stroke="#000000" stroke-miterlimit="5" d="M462.202,286.253
		c0,36.954-33.323,66.911-74.43,66.911H177.404c-41.106,0-74.43-29.957-74.43-66.911V168.899c0-36.954,33.323-66.911,74.43-66.911
		h210.369c41.106,0,76.155,20.78,74.43,66.911v117.354H462.202z"/>
	<path display="inline" d="M97.965,164.965c50.265,23.844,133.635,81.63,163.484,86.812c23.008,3.994,24.129,2.5,40.599-1.933
		c28.954-7.794,153.806-84.016,163.351-89.686c2.044-36.7-30.461-69.445-132.552-62.213c-89.738,6.357-134.562-10.81-201.727,4.547
		C122.059,104.563,97.965,164.965,97.965,164.965z"/>
	<path display="inline" d="M343.066,281.979c0,4.394-3.562,7.956-7.956,7.956H219.179c-4.394,0-7.956-3.562-7.956-7.956l0,0
		c0-4.394,3.562-7.956,7.956-7.956H335.11C339.504,274.023,343.066,277.585,343.066,281.979L343.066,281.979z"/>
	<path display="inline" d="M343.066,312.288c0,4.394-3.562,7.956-7.956,7.956H219.179c-4.394,0-7.956-3.562-7.956-7.956l0,0
		c0-4.394,3.562-7.956,7.956-7.956H335.11C339.504,304.332,343.066,307.894,343.066,312.288L343.066,312.288z"/>
</g>
</svg>
