<?xml version="1.0" encoding="utf-8"?>
<!-- Generator: Adobe Illustrator 17.0.0, SVG Export Plug-In . SVG Version: 6.00 Build 0)  -->
<!DOCTYPE svg PUBLIC "-//W3C//DTD SVG 1.1//EN" "http://www.w3.org/Graphics/SVG/1.1/DTD/svg11.dtd">
<svg version="1.1" id="图层_1" xmlns="http://www.w3.org/2000/svg" xmlns:xlink="http://www.w3.org/1999/xlink" x="0px" y="0px"
	 width="566.93px" height="566.93px" viewBox="0 0 566.93 566.93" enable-background="new 0 0 566.93 566.93" xml:space="preserve">
<g id="图层_2" display="none">
	
		<image display="inline" overflow="visible" enable-background="new    " width="564" height="2641" xlink:href="../../icon-符号/76fb5603dc7e79a619abf63032e7f8b9.jpg"  transform="matrix(1.7084 0 0 1.7084 -89.5229 -1990.5494)">
	</image>
</g>
<g id="图层_7" display="none">
	<path display="inline" fill="#231815" d="M475.575,501.628c0.837-7.166,1.316-14.442,1.316-21.833
		c0-102.898-83.416-186.314-186.314-186.314s-186.314,83.416-186.314,186.314c0,7.391,0.479,14.666,1.316,21.833H475.575z"/>
	<circle display="inline" fill="#231815" cx="287.633" cy="187.016" r="109"/>
	<path display="inline" fill="#FFFFFF" d="M330.201,232.737c0,5.433-3.709,9.838-8.285,9.838h-71.579
		c-4.575,0-8.285-4.405-8.285-9.838l0,0c0-5.433,3.709-9.838,8.285-9.838h71.579C326.492,222.899,330.201,227.304,330.201,232.737
		L330.201,232.737z"/>
</g>
<g id="图层_7_x5F_复制" display="none">
	<path display="inline" fill="#231815" stroke="#FFFFFF" stroke-width="10" stroke-miterlimit="10" d="M422.738,438.74
		c0.574-4.911,0.902-9.897,0.902-14.962c0-70.517-57.165-127.682-127.682-127.682s-127.682,57.165-127.682,127.682
		c0,5.065,0.328,10.051,0.902,14.962H422.738z"/>
	
		<circle display="inline" fill="#231815" stroke="#FFFFFF" stroke-width="10" stroke-miterlimit="10" cx="293.94" cy="223.135" r="74.698"/>
	<path display="inline" fill="#FFFFFF" stroke="#FFFFFF" stroke-miterlimit="10" d="M323.112,254.467
		c0,3.724-2.542,6.742-5.677,6.742h-49.053c-3.136,0-5.677-3.018-5.677-6.742l0,0c0-3.723,2.542-6.742,5.677-6.742h49.053
		C320.57,247.725,323.112,250.744,323.112,254.467L323.112,254.467z"/>
	<path display="inline" fill="#231815" stroke="#FFFFFF" stroke-width="10" stroke-miterlimit="10" d="M292.03,501.628
		c0.574-4.911,0.902-9.897,0.902-14.962c0-70.517-57.165-127.682-127.682-127.682S37.567,416.149,37.567,486.666
		c0,5.065,0.328,10.051,0.902,14.962H292.03z"/>
	
		<circle display="inline" fill="#231815" stroke="#FFFFFF" stroke-width="10" stroke-miterlimit="10" cx="163.232" cy="286.023" r="74.698"/>
	<path display="inline" fill="#FFFFFF" stroke="#FFFFFF" stroke-miterlimit="10" d="M192.405,317.355
		c0,3.724-2.542,6.742-5.677,6.742h-49.053c-3.136,0-5.677-3.018-5.677-6.742l0,0c0-3.723,2.542-6.742,5.677-6.742h49.053
		C189.863,310.613,192.405,313.632,192.405,317.355L192.405,317.355z"/>
	<path display="inline" fill="#231815" stroke="#FFFFFF" stroke-width="10" stroke-miterlimit="10" d="M541.151,495.633
		c0.574-4.911,0.902-9.897,0.902-14.962c0-70.517-57.165-127.682-127.682-127.682s-127.682,57.165-127.682,127.682
		c0,5.065,0.328,10.051,0.902,14.962H541.151z"/>
	
		<circle display="inline" fill="#231815" stroke="#FFFFFF" stroke-width="10" stroke-miterlimit="10" cx="412.353" cy="280.027" r="74.698"/>
	<path display="inline" fill="#FFFFFF" stroke="#FFFFFF" stroke-miterlimit="10" d="M441.526,311.36
		c0,3.724-2.542,6.742-5.677,6.742h-49.053c-3.136,0-5.677-3.018-5.677-6.742l0,0c0-3.723,2.542-6.742,5.677-6.742h49.053
		C438.984,304.618,441.526,307.636,441.526,311.36L441.526,311.36z"/>
</g>
<g id="图层_9" display="none">
	<polygon display="inline" points="289.162,168.795 289.162,229.411 107.314,229.411 107.314,350.643 289.162,350.643 
		289.162,411.259 471.01,290.027 	"/>
</g>
<g id="图层_9_x5F_复制" display="none">
	<polygon display="inline" points="477.01,290.027 295.162,168.795 295.162,229.411 294.761,229.411 294.761,350.643 
		295.162,350.643 295.162,411.259 	"/>
	<polygon display="inline" points="308.04,290.027 126.192,168.795 126.192,229.411 125.791,229.411 125.791,350.643 
		126.192,350.643 126.192,411.259 	"/>
</g>
<g id="图层_5" display="none">
	<path display="inline" fill="#231815" d="M279.261,94.758c-55.682,0-100.822,45.14-100.822,100.822v83.362
		c0,55.682,45.14,100.822,100.822,100.822c55.683,0,100.822-45.14,100.822-100.822V195.58
		C380.084,139.898,334.944,94.758,279.261,94.758z M349.667,259.851c0,38.905-31.539,70.444-70.444,70.444
		s-70.444-31.539-70.444-70.444v-58.244c0-38.905,31.539-70.444,70.444-70.444s70.444,31.539,70.444,70.444V259.851z"/>
	<path display="inline" fill="#231815" d="M442.493,231.818h-0.034c0-4.684-4.278-8.482-9.554-8.482H131.523
		c-5.276,0-9.554,3.797-9.554,8.482v193.539h0.046c-0.007,0.137-0.046,0.267-0.046,0.406c0,4.684,4.278,8.482,9.554,8.482h301.382
		c5.276,0,9.554-3.797,9.554-8.482c0-0.139-0.039-0.268-0.046-0.406h0.08L442.493,231.818L442.493,231.818z"/>
	<path display="inline" fill="#FFFFFF" d="M305.148,318.897c0-14.503-11.757-26.259-26.259-26.259
		c-14.503,0-26.259,11.756-26.259,26.259c0,11.736,7.751,21.557,18.374,24.921v30.399c0,4.061,3.292,7.353,7.353,7.353
		s7.353-3.292,7.353-7.353v-30.068C296.882,341.13,305.148,331.024,305.148,318.897z"/>
</g>
<g id="图层_5_x5F_复制" display="none">
	<path display="inline" fill="#231815" d="M314.527,289.656c-34.188,9.251-70.591-8.487-83.865-42.213l-21.332-54.197
		c-14.249-36.202,3.548-77.1,39.749-91.349c36.202-14.249,77.1,3.548,91.349,39.749l11.607,29.489l28.651-10.257l-14.162-35.981
		c-20.393-51.814-78.929-77.285-130.743-56.891c-51.814,20.393-77.285,78.929-56.891,130.742l30.531,77.569
		c19.226,48.849,72.354,74.276,121.789,59.938L314.527,289.656z"/>
	<path display="inline" fill="#231815" d="M442.493,231.818h-0.034c0-4.684-4.278-8.482-9.554-8.482H131.523
		c-5.276,0-9.554,3.797-9.554,8.482v193.539h0.046c-0.007,0.137-0.046,0.267-0.046,0.406c0,4.684,4.278,8.482,9.554,8.482h301.382
		c5.276,0,9.554-3.797,9.554-8.482c0-0.139-0.039-0.268-0.046-0.406h0.08L442.493,231.818L442.493,231.818z"/>
	<path display="inline" fill="#FFFFFF" d="M305.148,318.897c0-14.503-11.757-26.259-26.259-26.259
		c-14.503,0-26.259,11.756-26.259,26.259c0,11.736,7.751,21.557,18.374,24.921v30.399c0,4.061,3.292,7.353,7.353,7.353
		s7.353-3.292,7.353-7.353v-30.068C296.882,341.13,305.148,331.024,305.148,318.897z"/>
</g>
<g id="图层_4" display="none">
	<path display="inline" fill="#231815" d="M183.385,185.383c24.496-3.863,48.594,13.643,60.598,23.932s21.437,6.86,24.009,7.717
		c0.857-24.009,8.55-35.381,18.864-44.588c11.475-10.244,26.582-15.434,45.446-20.579s33.441-24.009,36.014-39.444
		s8.575-3.43,8.575-1.715s-9.177,28.171-22.039,37.603s-31.124,10.415-44.844,18.132c-13.72,7.717-17.904,7.733-24.867,22.294
		c-6.555,13.708-3.43,21.437-3.43,24.867c9.432,0,12.005,8.575,32.584-10.29s36.871-17.149,50.591-17.149
		s61.267,13.481,80.495,49.801c15.434,29.154,24.974,42.806,27.546,96.826s7.968,124.152-30.011,128.621
		c-29.154,3.43-79.745-62.595-96.037-78.03c-30.011-1.715-119.188-0.857-126.906-0.857c-29.154,26.582-59.165,76.315-98.609,75.457
		c-39.444-0.857-34.299-113.186-34.299-139.768S117.642,195.75,183.385,185.383z"/>
	<polygon display="inline" fill="#FFFFFF" points="225.339,284.928 194.707,284.928 194.707,251.331 168.028,251.331 
		168.028,284.928 139.372,284.928 139.372,304.69 168.028,304.69 168.028,338.286 194.707,338.286 194.707,304.69 225.339,304.69 	
		"/>
	<circle display="inline" fill="#FFFFFF" cx="383.531" cy="263.034" r="15.152"/>
	<circle display="inline" fill="#FFFFFF" cx="387.096" cy="323.641" r="15.152"/>
	<circle display="inline" fill="#FFFFFF" cx="416.475" cy="292.446" r="15.152"/>
	<circle display="inline" fill="#FFFFFF" cx="356.759" cy="295.12" r="15.152"/>
</g>
<g id="图层_3" display="none">
	<path display="inline" fill="#231815" d="M247.255,146.282c38.544-7.975,145.376-21.885,187.582-28.137
		c42.206-6.253,35.953-4.69,34.39,40.643c-1.563,45.332-10.541,175.655-15.967,217.98c-5.569,43.441-106.353,109.609-159.53,35.813
		c-53.928-74.839,76.563-112.308,117.206-85.734c3.256-60.773,3.256-87.376,3.256-113.95c-34.39,4.69-131.134,17.493-153.019,20.62
		c-6.253,62.527-7.665,162.876-12.354,192.576c-4.69,29.701-138.494,109.12-173.513-14.069
		c-17.993-63.293,91.182-66.211,124.009-53.705c9.767-103.098,7.028-110.726,11.988-147.946
		C217.762,161.89,201.922,155.661,247.255,146.282z"/>
</g>
<g id="图层_1_1_" display="none">
	<path display="inline" d="M475.449,291.822c0,40.555-35.958,73.431-80.315,73.431H168.131c-44.357,0-80.315-32.876-80.315-73.431
		V163.033c0-40.555,35.958-73.431,80.315-73.431h227.003c44.357,0,80.315,32.876,80.315,73.431V291.822z"/>
	<path display="inline" fill="#FFFFFF" stroke="#000000" stroke-miterlimit="5" d="M462.202,286.253
		c0,36.954-33.323,66.911-74.43,66.911H177.404c-41.106,0-74.43-29.957-74.43-66.911V168.899c0-36.954,33.323-66.911,74.43-66.911
		h210.369c41.106,0,76.155,20.78,74.43,66.911v117.354H462.202z"/>
	<path display="inline" d="M97.965,164.965c50.265,23.844,133.635,81.63,163.484,86.812c23.008,3.994,24.129,2.5,40.599-1.933
		c28.954-7.794,153.806-84.016,163.351-89.686c2.044-36.7-30.461-69.445-132.552-62.213c-89.738,6.357-134.562-10.81-201.727,4.547
		C122.059,104.563,97.965,164.965,97.965,164.965z"/>
	<path display="inline" d="M343.066,281.979c0,4.394-3.562,7.956-7.956,7.956H219.179c-4.394,0-7.956-3.562-7.956-7.956l0,0
		c0-4.394,3.562-7.956,7.956-7.956H335.11C339.504,274.023,343.066,277.585,343.066,281.979L343.066,281.979z"/>
	<path display="inline" d="M343.066,312.288c0,4.394-3.562,7.956-7.956,7.956H219.179c-4.394,0-7.956-3.562-7.956-7.956l0,0
		c0-4.394,3.562-7.956,7.956-7.956H335.11C339.504,304.332,343.066,307.894,343.066,312.288L343.066,312.288z"/>
</g>
<g id="图层_11" display="none">
	
		<rect x="138.95" y="185.212" transform="matrix(-0.938 0.3466 -0.3466 -0.938 400.9538 337.6157)" display="inline" fill="#FFFFFF" width="62.673" height="38.901"/>
	
		<rect x="211.929" y="158.245" transform="matrix(-0.938 0.3466 -0.3466 -0.938 533.0425 260.0587)" display="inline" fill="#FFFFFF" width="62.673" height="38.901"/>
	
		<rect x="286.049" y="130.858" transform="matrix(-0.938 0.3466 -0.3466 -0.938 667.1947 181.2912)" display="inline" fill="#FFFFFF" width="62.673" height="38.901"/>
	
		<rect x="360.169" y="103.47" transform="matrix(-0.938 0.3466 -0.3466 -0.938 801.3468 102.5233)" display="inline" fill="#FFFFFF" width="62.673" height="38.901"/>
	<path display="inline" fill="#231815" d="M486.188,288.135l-0.204-55.928c0-8.429-101.045-135.92-107.555-135.92H102.504
		c-6.51,0-11.788,6.833-11.788,15.262v348.246h0.057c-0.009,0.247-0.057,0.48-0.057,0.73c0,8.429,5.278,15.262,11.788,15.262
		h371.853c6.51,0,11.788-6.833,11.788-15.262c0-0.25-0.048-0.483-0.057-0.73h0.099v-171.66H486.188z"/>
	<path display="inline" fill="#FFFFFF" d="M381.516,183.522c0,28.298-22.94,51.238-51.238,51.238H178.149
		c-28.298,0-51.238-22.94-51.238-51.238l0,0c0-28.298,22.94-51.238,51.238-51.238h152.129
		C358.576,132.284,381.516,155.224,381.516,183.522L381.516,183.522z"/>
	<path display="inline" fill="#231815" d="M345.898,201.817c0,8.661-7.021,15.681-15.681,15.681l0,0
		c-8.661,0-15.681-7.021-15.681-15.681v-38.681c0-8.661,7.021-15.681,15.681-15.681l0,0c8.661,0,15.681,7.021,15.681,15.681V201.817
		z"/>
	<circle display="inline" fill="#FFFFFF" cx="126.615" cy="446.252" r="13.786"/>
	<circle display="inline" fill="#FFFFFF" cx="452.971" cy="446.252" r="13.786"/>
</g>
<g id="图层_12" display="none">
	<path display="inline" fill="#231815" d="M295.232,62.483c-91.12,0-164.987,73.867-164.987,164.987
		c0,41.484,15.424,79.289,40.704,108.279L69.288,455.57c-12.738,15.013-10.893,37.509,4.12,50.247
		c15.013,12.738,37.509,10.893,50.247-4.12l104.75-123.462c20.444,9.077,43.018,14.222,66.828,14.222
		c91.12,0,164.987-73.867,164.987-164.987C460.219,136.35,386.352,62.483,295.232,62.483z"/>
	<circle display="inline" fill="#FFFFFF" cx="296.632" cy="227.703" r="117.398"/>
	<path display="inline" fill="#231815" d="M356.593,207.061h-38.904v-38.905c0-10.555-8.557-19.111-19.111-19.111
		c-10.555,0-19.111,8.556-19.111,19.111v38.905h-38.904c-10.555,0-19.111,8.556-19.111,19.111s8.556,19.111,19.111,19.111h38.904
		v38.905c0,10.555,8.557,19.111,19.111,19.111c10.555,0,19.111-8.557,19.111-19.111v-38.905h38.904
		c10.555,0,19.111-8.556,19.111-19.111C375.704,215.616,367.147,207.061,356.593,207.061z"/>
</g>
<g id="图层_12_x5F_复制" display="none">
	<path display="inline" fill="#231815" d="M295.232,62.483c-91.12,0-164.987,73.867-164.987,164.987
		c0,41.484,15.424,79.289,40.704,108.279L69.288,455.57c-12.738,15.013-10.893,37.509,4.12,50.247
		c15.013,12.738,37.509,10.893,50.247-4.12l104.75-123.462c20.444,9.077,43.018,14.222,66.828,14.222
		c91.12,0,164.987-73.867,164.987-164.987C460.219,136.35,386.352,62.483,295.232,62.483z"/>
	<circle display="inline" fill="#FFFFFF" cx="296.632" cy="227.703" r="117.398"/>
</g>
<g id="图层_14" display="none">
	<path display="inline" fill="#FFFFFF" d="M472.288,328.209c0,30.728-27.48,55.638-61.379,55.638H279.191
		c-33.899,0-61.379-24.91-61.379-55.638V111.396c0-30.728,27.48-55.638,61.379-55.638h131.718c33.899,0,61.379,24.91,61.379,55.638
		V328.209z"/>
	<path display="inline" fill="#231815" d="M459.456,320.241c0,28.497-24.524,51.599-54.776,51.599H287.132
		c-30.252,0-54.776-23.102-54.776-51.599V119.165c0-28.497,24.524-51.599,54.776-51.599H404.68
		c30.252,0,54.776,23.102,54.776,51.599V320.241z"/>
	<path display="inline" fill="#FFFFFF" d="M424.071,278.685c0,3.437-4.187,6.223-9.353,6.223h-136.28
		c-5.165,0-9.353-2.786-9.353-6.223l0,0c0-3.437,4.187-6.223,9.353-6.223h136.281C419.884,272.462,424.071,275.248,424.071,278.685
		L424.071,278.685z"/>
	<path display="inline" fill="#FFFFFF" d="M423.711,247.826c0,3.437-4.187,6.223-9.353,6.223H278.077
		c-5.165,0-9.353-2.786-9.353-6.223l0,0c0-3.437,4.187-6.223,9.353-6.223h136.281C419.523,241.603,423.711,244.389,423.711,247.826
		L423.711,247.826z"/>
	<path display="inline" fill="#FFFFFF" d="M423.711,213.959c0,3.437-4.187,6.223-9.353,6.223H278.077
		c-5.165,0-9.353-2.786-9.353-6.223l0,0c0-3.437,4.187-6.223,9.353-6.223h136.281C419.523,207.736,423.711,210.522,423.711,213.959
		L423.711,213.959z"/>
	<path display="inline" fill="#FFFFFF" d="M423.711,180.814c0,3.437-4.187,6.223-9.353,6.223H278.077
		c-5.165,0-9.353-2.786-9.353-6.223l0,0c0-3.437,4.187-6.223,9.353-6.223h136.281C419.523,174.591,423.711,177.377,423.711,180.814
		L423.711,180.814z"/>
	<path display="inline" fill="#FFFFFF" d="M423.711,151.098c0,3.437-4.187,6.223-9.353,6.223H278.077
		c-5.165,0-9.353-2.786-9.353-6.223l0,0c0-3.437,4.187-6.223,9.353-6.223h136.281C419.523,144.875,423.711,147.661,423.711,151.098
		L423.711,151.098z"/>
	<path display="inline" fill="#FFFFFF" stroke="#FFFFFF" stroke-miterlimit="10" d="M396.694,307.868
		c0,3.437-2.786,6.223-6.223,6.223h-90.683c-3.437,0-6.223-2.786-6.223-6.223l0,0c0-3.437,2.786-6.223,6.223-6.223h90.683
		C393.908,301.645,396.694,304.431,396.694,307.868L396.694,307.868z"/>
	<path display="inline" fill="#FFFFFF" d="M461.68,101.079c-3.993-16.942-21.562-32.473-39.131-33.885s-38.467-11.918-32.669-1.958
		c3.541,6.082,23.07,28,13.126,47.621c-0.619,0.877-0.883,2.819,1.864,1.675c26.069-10.848,51.829,0.364,57.609,4.196"/>
	<path display="inline" fill="#231815" d="M358.23,441.692c0,30.728-27.48,55.638-61.379,55.638H165.132
		c-33.899,0-61.379-24.91-61.379-55.638V224.878c0-30.728,27.48-55.638,61.379-55.638H296.85c33.899,0,61.379,24.91,61.379,55.638
		v216.814H358.23z"/>
	<path display="inline" fill="#FFFFFF" d="M345.398,433.723c0,28.497-24.524,51.599-54.776,51.599H173.073
		c-30.252,0-54.776-23.102-54.776-51.599V232.647c0-28.497,24.524-51.599,54.776-51.599h117.548
		c30.252,0,54.776,23.102,54.776,51.599v201.076H345.398z"/>
	<path display="inline" fill="#231815" d="M310.013,392.168c0,3.437-4.187,6.223-9.353,6.223H164.379
		c-5.165,0-9.353-2.786-9.353-6.223l0,0c0-3.437,4.187-6.223,9.353-6.223H300.66C305.826,385.944,310.013,388.731,310.013,392.168
		L310.013,392.168z"/>
	<path display="inline" fill="#231815" d="M309.652,361.308c0,3.437-4.187,6.223-9.353,6.223h-136.28
		c-5.165,0-9.353-2.786-9.353-6.223l0,0c0-3.437,4.187-6.223,9.353-6.223H300.3C305.465,355.085,309.652,357.871,309.652,361.308
		L309.652,361.308z"/>
	<path display="inline" fill="#231815" d="M309.652,327.442c0,3.437-4.187,6.223-9.353,6.223h-136.28
		c-5.165,0-9.353-2.786-9.353-6.223l0,0c0-3.437,4.187-6.223,9.353-6.223H300.3C305.465,321.219,309.652,324.005,309.652,327.442
		L309.652,327.442z"/>
	<path display="inline" fill="#231815" d="M309.652,294.297c0,3.437-4.187,6.223-9.353,6.223h-136.28
		c-5.165,0-9.353-2.786-9.353-6.223l0,0c0-3.437,4.187-6.223,9.353-6.223H300.3C305.465,288.074,309.652,290.86,309.652,294.297
		L309.652,294.297z"/>
	<path display="inline" fill="#231815" d="M309.652,264.581c0,3.437-4.187,6.223-9.353,6.223h-136.28
		c-5.165,0-9.353-2.786-9.353-6.223l0,0c0-3.437,4.187-6.223,9.353-6.223H300.3C305.465,258.358,309.652,261.144,309.652,264.581
		L309.652,264.581z"/>
	<path display="inline" fill="#231815" stroke="#231815" stroke-miterlimit="10" d="M282.636,421.351
		c0,3.437-2.786,6.223-6.223,6.223H185.73c-3.437,0-6.223-2.786-6.223-6.223l0,0c0-3.437,2.786-6.223,6.223-6.223h90.683
		C279.849,415.128,282.636,417.914,282.636,421.351L282.636,421.351z"/>
	<path display="inline" fill="#231815" d="M347.622,214.562c-3.993-16.942-21.562-32.473-39.131-33.885s-38.467-11.918-32.669-1.958
		c3.541,6.082,23.07,28,13.126,47.621c-0.619,0.877-0.883,2.819,1.864,1.675c26.069-10.848,51.829,0.364,57.609,4.196"/>
</g>
<g id="图层_15" display="none">
	<path display="inline" fill="#231815" d="M285.146,129.506H456.82c24.33,0,44.054,21.759,44.054,48.6v104.295
		c0,26.841-19.724,48.6-44.054,48.6h-2.247l4.333,39.611l-60.989-39.611h-112.77c-24.33,0-44.054-21.759-44.054-48.6V178.107
		C241.092,151.265,260.815,129.506,285.146,129.506z"/>
	<path display="inline" fill="#231815" d="M291.455,139.667c-22.564,0-40.856,19.418-40.856,43.372v93.075
		c0,23.954,18.292,43.372,40.856,43.372h159.213c22.564,0,40.857-19.418,40.857-43.372v-93.075
		c0-23.954-18.292-43.372-40.857-43.372L291.455,139.667L291.455,139.667z"/>
	<path display="inline" fill="#FFFFFF" d="M288.942,175.854c0,3.466,4.223,6.276,9.432,6.276h137.443
		c5.209,0,9.432-2.81,9.432-6.276l0,0c0-3.466-4.223-6.276-9.432-6.276H298.375C293.165,169.578,288.942,172.388,288.942,175.854
		L288.942,175.854z"/>
	<path display="inline" fill="#FFFFFF" d="M288.942,216.747c0,3.466,4.223,6.276,9.432,6.276h137.443
		c5.209,0,9.432-2.81,9.432-6.276l0,0c0-3.466-4.223-6.276-9.432-6.276H298.375C293.165,210.47,288.942,213.28,288.942,216.747
		L288.942,216.747z"/>
	<path display="inline" fill="#FFFFFF" d="M288.942,253.029c0,3.466,4.223,6.276,9.432,6.276h137.443
		c5.209,0,9.432-2.81,9.432-6.276l0,0c0-3.466-4.223-6.276-9.432-6.276H298.375C293.165,246.752,288.942,249.562,288.942,253.029
		L288.942,253.029z"/>
	<path display="inline" fill="#FFFFFF" stroke="#FFFFFF" stroke-miterlimit="10" d="M330.091,287.714
		c0,2.721,2.206,4.928,4.928,4.928h71.803c2.721,0,4.928-2.206,4.928-4.928l0,0c0-2.721-2.206-4.928-4.928-4.928h-71.803
		C332.297,282.787,330.091,284.993,330.091,287.714L330.091,287.714z"/>
	<path display="inline" fill="#231815" d="M299.488,198.007H111.043c-26.707,0-48.358,23.885-48.358,53.348v114.484
		c0,29.463,21.651,53.348,48.358,53.348h2.467l-4.756,43.481l66.947-43.481h123.786c26.707,0,48.358-23.885,48.358-53.348V251.355
		C347.845,221.892,326.195,198.007,299.488,198.007z"/>
	<path display="inline" fill="#FFFFFF" d="M292.562,209.16c24.769,0,44.848,21.315,44.848,47.609v102.168
		c0,26.294-20.079,47.609-44.848,47.609H117.796c-24.769,0-44.848-21.315-44.848-47.609V256.769
		c0-26.294,20.079-47.609,44.848-47.609H292.562z"/>
	<path display="inline" fill="#231815" d="M295.32,248.882c0,3.805-4.636,6.89-10.354,6.89h-150.87
		c-5.718,0-10.354-3.085-10.354-6.89l0,0c0-3.805,4.636-6.89,10.354-6.89h150.87C290.685,241.993,295.32,245.077,295.32,248.882
		L295.32,248.882z"/>
	<path display="inline" fill="#231815" d="M295.32,293.77c0,3.805-4.636,6.89-10.354,6.89h-150.87
		c-5.718,0-10.354-3.085-10.354-6.89l0,0c0-3.805,4.636-6.89,10.354-6.89h150.87C290.685,286.881,295.32,289.965,295.32,293.77
		L295.32,293.77z"/>
	<path display="inline" fill="#231815" d="M295.32,333.596c0,3.805-4.636,6.89-10.354,6.89h-150.87
		c-5.718,0-10.354-3.085-10.354-6.89l0,0c0-3.805,4.636-6.89,10.354-6.89h150.87C290.685,326.707,295.32,329.791,295.32,333.596
		L295.32,333.596z"/>
	<path display="inline" fill="#231815" stroke="#231815" stroke-miterlimit="10" d="M250.152,371.671
		c0,2.987-2.422,5.409-5.409,5.409h-78.817c-2.987,0-5.409-2.422-5.409-5.409l0,0c0-2.987,2.422-5.409,5.409-5.409h78.817
		C247.731,366.261,250.152,368.683,250.152,371.671L250.152,371.671z"/>
</g>
<path fill="#231815" d="M487.603,226.76h-0.044c0-5.964-5.446-10.799-12.165-10.799H231.896l231.559-85.57
	c17.547-6.485,26.515-25.966,20.031-43.513c-6.484-17.547-25.965-26.515-43.512-20.031L102.252,191.648
	c-13.658,5.048-22.114,17.969-22.137,31.722c-0.397,1.067-0.62,2.204-0.62,3.39v246.424h0.059c-0.009,0.175-0.059,0.34-0.059,0.517
	c0,5.964,5.446,10.799,12.165,10.799h383.735c6.718,0,12.165-4.835,12.165-10.799c0-0.177-0.049-0.342-0.059-0.517h0.102V226.76z
	 M413.273,90.322l13.914,37.655l-60.667,22.417l-13.914-37.655L413.273,90.322z M336.785,118.585l13.914,37.655l-60.667,22.417
	l-13.914-37.655L336.785,118.585z M195.153,270.825h-64.677v-40.144h64.677V270.825z M189.077,215.961H131.29l-6.972-18.868
	l60.667-22.417l13.914,37.655L189.077,215.961z M260.296,146.848l13.914,37.655l-60.667,22.417l-13.914-37.655L260.296,146.848z
	 M210.764,230.681h64.677v40.144h-64.677V230.681z M252.3,423.481V304.605l89.157,59.438L252.3,423.481z M356.984,270.825h-64.677
	v-40.144h64.677V270.825z M438.527,270.825H373.85v-40.144h64.677V270.825z"/>
<g id="图层_17" display="none">
	<g id="图层_8" display="inline">
		<path d="M260.573,294.566c0.009,41.161-0.023,82.322,0.044,123.483c0.009,5.986-0.862,11.418-6.487,14.797
			c-5.62,3.377-10.781,2.48-17.265-3.122c-26.51-22.892-53.048-45.752-79.393-68.834c-3.91-3.425-7.771-4.832-12.929-4.779
			c-22.549,0.236-45.101,0.144-67.652,0.074c-12.304-0.037-16.654-4.362-16.674-16.628c-0.053-31.089-0.037-62.181,0.014-93.27
			c0.016-10.853,4.744-15.683,15.576-15.729c23.428-0.102,46.855-0.139,70.28,0.012c4.851,0.03,8.598-1.21,12.366-4.51
			c25.685-22.505,51.632-44.711,77.395-67.124c5.075-4.415,10.225-7.856,17.117-4.596c6.816,3.226,7.655,9.372,7.643,16.081
			C260.522,211.803,260.564,253.185,260.573,294.566z"/>
		<path d="M497.632,217.516c0,8.378-6.793,15.17-15.17,15.17H311.118c-8.378,0-15.17-6.793-15.17-15.17l0,0
			c0-8.378,6.793-15.17,15.17-15.17h171.344C490.84,202.346,497.632,209.136,497.632,217.516L497.632,217.516z"/>
		<path d="M497.632,288.909c0,8.378-6.793,15.17-15.17,15.17H311.118c-8.378,0-15.17-6.793-15.17-15.17l0,0
			c0-8.378,6.793-15.17,15.17-15.17h171.344C490.84,273.739,497.632,280.531,497.632,288.909L497.632,288.909z"/>
		<path d="M497.632,367.442c0,8.378-6.793,15.17-15.17,15.17H311.118c-8.378,0-15.17-6.793-15.17-15.17l0,0
			c0-8.378,6.793-15.17,15.17-15.17h171.344C490.84,352.272,497.632,359.064,497.632,367.442L497.632,367.442z"/>
	</g>
</g>
</svg>
